<?xml version="1.0" encoding="UTF-8"?>
<svg version="1.1" xmlns="http://www.w3.org/2000/svg" width="84" height="60">
<path d="M0 0 C9.57 0 19.14 0 29 0 C29 10.23 29 20.46 29 31 C34.28 31 39.56 31 45 31 C45 35.29 45 39.58 45 44 C46.98 44 48.96 44 51 44 C51 45.98 51 47.96 51 50 C52.65 50 54.3 50 56 50 C56 51.98 56 53.96 56 56 C54.02 56 52.04 56 50 56 C50 54.35 50 52.7 50 51 C48.02 51 46.04 51 44 51 C44 49.02 44 47.04 44 45 C39.05 45 34.1 45 29 45 C29.020625 47.289375 29.04125 49.57875 29.0625 51.9375 C29.08370868 54.29166332 29.07271741 56.64686445 29 59 C28 60 28 60 25.31616211 60.11352539 C24.14835205 60.10828857 22.98054199 60.10305176 21.77734375 60.09765625 C20.51728516 60.09443359 19.25722656 60.09121094 17.95898438 60.08789062 C16.61848891 60.07953403 15.27799412 60.07106907 13.9375 60.0625 C12.59310058 60.0574866 11.2486994 60.05292342 9.90429688 60.04882812 C6.60284567 60.03699497 3.3014174 60.01905886 0 60 C0 55.05 0 50.1 0 45 C-5.61 45 -11.22 45 -17 45 C-17 35.43 -17 25.86 -17 16 C-18.98 16 -20.96 16 -23 16 C-23 14.02 -23 12.04 -23 10 C-24.65 10 -26.3 10 -28 10 C-28 8.02 -28 6.04 -28 4 C-26.02 4 -24.04 4 -22 4 C-22 5.65 -22 7.3 -22 9 C-20.02 9 -18.04 9 -16 9 C-16 10.98 -16 12.96 -16 15 C-10.72 15 -5.44 15 0 15 C0 10.05 0 5.1 0 0 Z M0 16 C0 20.95 0 25.9 0 31 C5.28 31 10.56 31 16 31 C16 26.05 16 21.1 16 16 C10.72 16 5.44 16 0 16 Z M17 32 C17 35.96 17 39.92 17 44 C20.63 44 24.26 44 28 44 C28 40.04 28 36.08 28 32 C24.37 32 20.74 32 17 32 Z " fill="#FFFFFF" transform="translate(28,0)"/>
</svg>
